<?xml version="1.0" encoding="UTF-8"?>
<!DOCTYPE svg PUBLIC "-//W3C//DTD SVG 1.1//EN" "http://www.w3.org/Graphics/SVG/1.1/DTD/svg11.dtd">
<svg xmlns="http://www.w3.org/2000/svg" version="1.1" width="1024px" height="1024px" style="shape-rendering:geometricPrecision; text-rendering:geometricPrecision; image-rendering:optimizeQuality; fill-rule:evenodd; clip-rule:evenodd" xmlns:xlink="http://www.w3.org/1999/xlink">
<g><path style="opacity:1" fill="#ff6c40" d="M -0.5,-0.5 C 340.833,-0.5 682.167,-0.5 1023.5,-0.5C 1023.5,340.833 1023.5,682.167 1023.5,1023.5C 682.167,1023.5 340.833,1023.5 -0.5,1023.5C -0.5,682.167 -0.5,340.833 -0.5,-0.5 Z"/></g>
<g><path style="opacity:1" fill="#fffbfa" d="M 807.5,402.5 C 815.488,401.525 822.988,402.858 830,406.5C 839.166,426.817 847.666,447.483 855.5,468.5C 857.84,470.671 860.506,472.338 863.5,473.5C 865.454,479.41 868.287,484.743 872,489.5C 880.97,513.292 873.47,529.126 849.5,537C 843.5,537.989 837.666,537.489 832,535.5C 822.219,548.641 809.052,555.308 792.5,555.5C 783.284,555.89 774.951,553.39 767.5,548C 761.301,542.136 755.468,535.969 750,529.5C 750.204,537.924 747.037,544.757 740.5,550C 742.377,555.005 743.21,560.172 743,565.5C 725.545,581.982 705.378,586.482 682.5,579C 682.418,575.084 680.418,572.918 676.5,572.5C 675.708,570.535 675.041,568.535 674.5,566.5C 673.833,566.167 673.167,565.833 672.5,565.5C 658.849,570.515 645.849,569.349 633.5,562C 629.333,557.833 625.167,553.667 621,549.5C 618.661,569.854 613.661,589.521 606,608.5C 590.502,634.682 567.669,644.848 537.5,639C 508.691,624.874 501.358,603.374 515.5,574.5C 517.423,573.692 519.423,573.192 521.5,573C 516.558,568.286 512.725,562.786 510,556.5C 509.536,580.617 497.702,595.784 474.5,602C 453.925,605.366 433.925,603.366 414.5,596C 406.114,590.621 398.614,584.121 392,576.5C 381.278,590.643 367.445,594.81 350.5,589C 346.553,586.72 342.887,584.053 339.5,581C 311.512,585.588 289.678,576.088 274,552.5C 272.4,548.533 270.9,544.533 269.5,540.5C 268.032,544.77 266.032,548.77 263.5,552.5C 250.843,558.07 237.843,558.904 224.5,555C 198.61,548.301 178.777,533.468 165,510.5C 154.933,483.088 158.267,457.421 175,433.5C 195.422,410.88 219.922,405.047 248.5,416C 262.337,421.172 273.17,430.005 281,442.5C 284.077,449.652 287.41,456.652 291,463.5C 291.942,456.668 294.442,450.502 298.5,445C 322.002,440.977 344.669,443.643 366.5,453C 380.291,460.121 389.791,470.955 395,485.5C 406.624,468.605 422.79,460.605 443.5,461.5C 461.858,461.381 479.025,465.714 495,474.5C 496.292,472.751 497.458,470.918 498.5,469C 511.499,468.203 524.499,467.869 537.5,468C 547.928,470.762 554.761,477.262 558,487.5C 558.307,482.118 558.974,476.785 560,471.5C 564.211,467.869 569.045,465.369 574.5,464C 587.394,460.879 599.728,462.212 611.5,468C 616.529,471.56 619.362,476.393 620,482.5C 620.689,483.357 621.522,484.023 622.5,484.5C 633,467.688 641,449.688 646.5,430.5C 656.833,428.4 667.166,426.233 677.5,424C 691.497,421.777 702.664,426.277 711,437.5C 712.41,441.844 714.41,445.844 717,449.5C 717.333,446.167 717.667,442.833 718,439.5C 728.143,434.561 738.643,430.394 749.5,427C 753.833,426.333 758.167,426.333 762.5,427C 766.127,427.564 769.293,429.064 772,431.5C 772.009,425.709 774.509,420.876 779.5,417C 787.932,410.285 797.265,405.452 807.5,402.5 Z"/></g>
<g><path style="opacity:1" fill="#ff6c41" d="M 817.5,422.5 C 821.98,422.268 826.313,422.935 830.5,424.5C 837.706,443.619 845.206,462.619 853,481.5C 856.721,486.554 861.054,490.888 866,494.5C 871.73,518.445 862.23,530.278 837.5,530C 833.015,528.593 829.015,526.427 825.5,523.5C 822.832,523.745 820.998,525.079 820,527.5C 819.481,531.015 819.814,534.348 821,537.5C 806.872,549.477 791.372,551.643 774.5,544C 768.955,540.122 764.455,535.289 761,529.5C 755.448,517.729 750.448,505.729 746,493.5C 734.954,483.674 729.788,471.34 730.5,456.5C 739.514,453.44 748.514,450.273 757.5,447C 767.199,445.118 774.699,448.284 780,456.5C 785.471,470.58 791.138,484.58 797,498.5C 802.249,504.151 806.749,503.651 810.5,497C 802.298,478.256 794.631,459.256 787.5,440C 790.95,434.604 795.617,430.604 801.5,428C 806.958,426.147 812.291,424.313 817.5,422.5 Z"/></g>
<g><path style="opacity:1" fill="#ff6c41" d="M 222.5,430.5 C 243.929,429.917 262.096,437.251 277,452.5C 288.417,468.848 289.417,485.848 280,503.5C 271.488,513.664 260.654,517.497 247.5,515C 233.284,512.395 221.284,505.895 211.5,495.5C 206.818,497.234 205.318,500.567 207,505.5C 213.276,513.896 221.442,519.729 231.5,523C 241.878,526.509 252.545,528.009 263.5,527.5C 263.472,534.444 261.806,540.944 258.5,547C 229.457,552.876 204.624,545.043 184,523.5C 170.386,501.842 170.053,479.842 183,457.5C 192.052,442.397 205.219,433.397 222.5,430.5 Z"/></g>
<g><path style="opacity:1" fill="#ff6c41" d="M 687.5,443.5 C 699.074,442.865 707.574,447.531 713,457.5C 716.154,470.088 718.987,482.755 721.5,495.5C 720.745,497.988 719.245,499.988 717,501.5C 716.505,504.531 716.671,507.531 717.5,510.5C 722.811,509.511 728.145,508.511 733.5,507.5C 734.5,507.833 735.5,508.167 736.5,508.5C 742.82,518.685 743.987,529.352 740,540.5C 737.552,542.631 735.052,544.631 732.5,546.5C 734.206,552.069 735.04,557.735 735,563.5C 721.58,574.415 706.413,577.915 689.5,574C 687.424,572.116 687.09,569.949 688.5,567.5C 692.745,566.699 696.579,565.032 700,562.5C 701.459,558.135 700.126,555.135 696,553.5C 682.049,556.492 668.049,559.158 654,561.5C 638.8,559.977 629.466,551.643 626,536.5C 622.539,526.334 624.205,517.334 631,509.5C 642.766,490.707 651.933,470.707 658.5,449.5C 668.343,447.808 678.01,445.808 687.5,443.5 Z"/></g>
<g><path style="opacity:1" fill="#ff6c41" d="M 313.5,463.5 C 332.454,462.469 350.788,465.303 368.5,472C 386.882,480.26 394.716,494.426 392,514.5C 389.747,525.34 387.581,536.173 385.5,547C 385.305,552.25 386.639,557.083 389.5,561.5C 385.123,580.357 373.456,587.524 354.5,583C 351.073,581.204 347.906,579.037 345,576.5C 342.882,572.651 341.048,568.651 339.5,564.5C 336.386,562.938 333.553,563.271 331,565.5C 329.684,568.688 329.184,572.022 329.5,575.5C 312.736,575.977 298.903,569.977 288,557.5C 280.948,541.694 282.281,526.694 292,512.5C 301.016,503.751 311.849,500.251 324.5,502C 332.147,503.604 339.48,506.104 346.5,509.5C 351.24,503.435 350.24,498.602 343.5,495C 330.937,489.746 317.937,488.246 304.5,490.5C 303.807,481.81 305.14,473.477 308.5,465.5C 310.291,464.83 311.958,464.163 313.5,463.5 Z"/></g>
<g><path style="opacity:1" fill="#fffaf8" d="M 232.5,468.5 C 237.677,467.703 242.177,469.036 246,472.5C 247.779,481.388 244.279,484.888 235.5,483C 232.098,481.6 229.264,479.433 227,476.5C 227.566,473.056 229.399,470.389 232.5,468.5 Z"/></g>
<g><path style="opacity:1" fill="#ff6c41" d="M 440.5,481.5 C 460.806,480.299 479.972,484.299 498,493.5C 498.667,499.167 498.667,504.833 498,510.5C 497.247,513.791 495.58,516.458 493,518.5C 481.679,513.377 469.846,510.877 457.5,511C 456.069,511.465 454.903,512.299 454,513.5C 453.223,516.429 453.39,519.263 454.5,522C 466.022,522.504 477.022,525.171 487.5,530C 500.156,538.152 504.989,549.652 502,564.5C 499.326,581.509 489.492,591.675 472.5,595C 457.04,597.311 441.707,596.645 426.5,593C 418.136,590.402 410.969,585.902 405,579.5C 401.69,572.871 400.69,565.871 402,558.5C 402.941,555.607 404.607,553.274 407,551.5C 420.115,560.475 434.615,564.975 450.5,565C 455.054,562.725 456.387,559.225 454.5,554.5C 439.96,554.034 426.627,549.868 414.5,542C 400.677,527.293 399.843,511.793 412,495.5C 420.051,487.724 429.551,483.057 440.5,481.5 Z"/></g>
<g><path style="opacity:1" fill="#ff6c41" d="M 585.5,482.5 C 592.896,482.2 600.229,482.7 607.5,484C 619.14,488.161 622.974,496.328 619,508.5C 616.241,534.312 612.241,559.979 607,585.5C 603.946,596.273 599.279,606.273 593,615.5C 578.27,630.647 560.437,636.147 539.5,632C 522.76,623.951 518.427,611.451 526.5,594.5C 529.333,594.167 532.167,593.833 535,593.5C 545.496,594.473 555.996,594.973 566.5,595C 569.231,592.103 570.231,588.603 569.5,584.5C 560.154,583.498 550.821,582.332 541.5,581C 533.286,576.114 527.119,569.281 523,560.5C 519.062,549.686 515.729,538.686 513,527.5C 504.228,515.364 503.061,502.531 509.5,489C 520.488,487.961 531.488,487.628 542.5,488C 550.973,489.806 556.14,494.973 558,503.5C 558.333,518.5 558.667,533.5 559,548.5C 559.124,551.77 560.791,553.437 564,553.5C 567.179,553.457 569.512,552.124 571,549.5C 571.101,529.137 571.768,508.804 573,488.5C 577.07,486.046 581.237,484.046 585.5,482.5 Z"/></g>
<g><path style="opacity:1" fill="#ffa88d" d="M 726.5,484.5 C 728.332,485.14 728.665,486.14 727.5,487.5C 726.614,486.675 726.281,485.675 726.5,484.5 Z"/></g>
<g><path style="opacity:1" fill="#fff9f7" d="M 680.5,498.5 C 681.497,498.47 682.164,498.97 682.5,500C 685.088,506.355 686.088,512.855 685.5,519.5C 679.993,521.401 674.326,522.401 668.5,522.5C 668.567,520.599 668.233,518.766 667.5,517C 670.441,512.181 672.608,507.015 674,501.5C 675.991,500.008 678.158,499.008 680.5,498.5 Z"/></g>
<g><path style="opacity:1" fill="#fff9f8" d="M 330.5,528.5 C 336.273,528.438 341.939,529.104 347.5,530.5C 346.71,541.812 341.044,545.645 330.5,542C 325.339,537.585 325.339,533.085 330.5,528.5 Z"/></g>
<g><path style="opacity:1" fill="#ff9473" d="M 498.5,523.5 C 499.497,523.47 500.164,523.97 500.5,525C 501.578,527.795 502.078,530.629 502,533.5C 500.526,530.244 499.36,526.911 498.5,523.5 Z"/></g>
<g><path style="opacity:1" fill="#ffe0d8" d="M 390.5,762.5 C 395.877,762.063 398.377,764.397 398,769.5C 395.342,770.694 394.176,769.694 394.5,766.5C 389.473,767.023 386.473,769.857 385.5,775C 388.167,775.333 390.833,775.667 393.5,776C 395.037,777.11 395.703,778.61 395.5,780.5C 391.618,779.363 387.784,779.363 384,780.5C 380.387,790.336 377.387,800.336 375,810.5C 373.174,811.841 372.007,811.341 371.5,809C 374.196,799.212 377.196,789.545 380.5,780C 377.553,779.888 376.22,778.388 376.5,775.5C 378.5,775.5 380.5,775.5 382.5,775.5C 383.413,769.993 386.079,765.66 390.5,762.5 Z"/></g>
<g><path style="opacity:1" fill="#ffe6df" d="M 408.5,764.5 C 409.5,764.5 410.5,764.5 411.5,764.5C 408.402,773.042 405.569,781.708 403,790.5C 402.044,794.572 402.544,798.405 404.5,802C 406.289,802.52 407.956,802.187 409.5,801C 412.926,796.152 416.592,791.485 420.5,787C 423.599,784.611 426.933,784.111 430.5,785.5C 431.5,784.833 432.5,784.167 433.5,783.5C 433.833,784.167 434.167,784.833 434.5,785.5C 432.993,788.853 431.993,792.353 431.5,796C 431.104,799.939 432.771,801.272 436.5,800C 440.144,797.025 441.977,793.192 442,788.5C 446.46,784.239 450.293,784.572 453.5,789.5C 453.547,791 452.881,792 451.5,792.5C 450.5,790.833 449.167,789.5 447.5,788.5C 446.522,788.977 445.689,789.643 445,790.5C 444.398,793.662 444.898,796.662 446.5,799.5C 450.935,797.479 455.602,796.479 460.5,796.5C 460.5,797.5 460.5,798.5 460.5,799.5C 456.022,799.862 451.688,800.862 447.5,802.5C 447.373,807.927 445.706,812.761 442.5,817C 440.5,817.667 438.5,817.667 436.5,817C 434.182,810.451 436.015,805.285 442,801.5C 442.667,800.5 442.667,799.5 442,798.5C 439.389,803.334 435.555,805.001 430.5,803.5C 429.194,802.088 428.36,800.421 428,798.5C 424.284,804.177 419.95,804.843 415,800.5C 412.405,803.264 409.238,804.931 405.5,805.5C 401.466,804.964 399.299,802.631 399,798.5C 390.784,807.628 386.784,806.295 387,794.5C 387.873,791.382 389.039,788.382 390.5,785.5C 391.325,784.614 392.325,784.281 393.5,784.5C 391.59,789.665 390.257,794.998 389.5,800.5C 392.959,799.564 395.793,797.564 398,794.5C 401.206,784.381 404.706,774.381 408.5,764.5 Z"/></g>
<g><path style="opacity:1" fill="#ffe3db" d="M 726.5,769.5 C 727.5,769.5 728.5,769.5 729.5,769.5C 725.627,780.286 722.461,791.286 720,802.5C 718.174,803.841 717.007,803.341 716.5,801C 718.99,790.199 722.323,779.699 726.5,769.5 Z"/></g>
<g><path style="opacity:1" fill="#ffe4dd" d="M 297.5,769.5 C 303.982,768.898 308.315,771.565 310.5,777.5C 310.167,778.167 309.833,778.833 309.5,779.5C 307.96,777.613 306.293,775.78 304.5,774C 296.658,771.972 293.491,774.805 295,782.5C 296.723,787.613 298.723,792.613 301,797.5C 309.08,793.88 316.58,789.38 323.5,784C 330.981,783.706 332.315,786.539 327.5,792.5C 324.499,793.543 321.832,795.043 319.5,797C 321.638,800.831 324.638,801.497 328.5,799C 334.049,794.814 336.882,789.314 337,782.5C 337.923,783.759 338.757,785.092 339.5,786.5C 342.451,783.805 345.118,784.138 347.5,787.5C 350.126,783.38 353.292,782.713 357,785.5C 359.002,795.509 357.168,804.842 351.5,813.5C 350.5,813.167 349.833,812.5 349.5,811.5C 351.284,807.6 352.784,803.6 354,799.5C 354.827,795.459 354.66,791.459 353.5,787.5C 351.142,789.024 349.309,791.024 348,793.5C 346.421,797.659 344.921,801.826 343.5,806C 341.763,806.612 340.763,805.946 340.5,804C 342.57,798.927 343.237,793.76 342.5,788.5C 340.473,789.693 338.973,791.36 338,793.5C 336.822,797.88 335.488,802.213 334,806.5C 332.989,807.337 331.822,807.67 330.5,807.5C 330.586,805.323 331.253,803.323 332.5,801.5C 332.167,801.167 331.833,800.833 331.5,800.5C 322.385,807.027 317.218,804.693 316,793.5C 311.667,795.833 307.333,798.167 303,800.5C 302.667,805.167 302.333,809.833 302,814.5C 297.708,821.331 292.708,821.997 287,816.5C 286.333,814.167 286.333,811.833 287,809.5C 290.008,805.326 293.508,801.659 297.5,798.5C 294.319,792.473 291.986,786.14 290.5,779.5C 291.321,775.027 293.655,771.693 297.5,769.5 Z"/></g>
<g><path style="opacity:1" fill="#ffe5dd" d="M 489.5,772.5 C 494.53,772.256 499.53,772.756 504.5,774C 508.508,778.547 509.508,783.713 507.5,789.5C 513.175,790.756 517.508,788.923 520.5,784C 526.667,782.167 528.833,784.333 527,790.5C 524.448,793.359 521.281,795.026 517.5,795.5C 517.748,799.968 520.082,801.468 524.5,800C 530.167,794.333 535.833,788.667 541.5,783C 545.348,782.013 547.348,783.513 547.5,787.5C 541.265,786.349 537.265,789.015 535.5,795.5C 535.529,797.029 536.196,798.196 537.5,799C 540.257,799.584 542.923,799.25 545.5,798C 549.8,794.702 553.8,791.035 557.5,787C 560.599,784.611 563.933,784.111 567.5,785.5C 569.332,783.043 570.999,783.043 572.5,785.5C 569.755,789.813 568.588,794.479 569,799.5C 573.078,800.821 575.911,799.321 577.5,795C 578.448,794.517 579.448,794.351 580.5,794.5C 579.254,801.254 575.254,804.421 568.5,804C 566.981,802.649 565.648,801.149 564.5,799.5C 562.381,802.892 559.381,804.059 555.5,803C 553.944,801.401 552.277,799.901 550.5,798.5C 547.852,800.658 544.852,801.992 541.5,802.5C 542.167,804.819 542.334,807.153 542,809.5C 540.445,811.515 538.611,811.848 536.5,810.5C 538.149,809.852 539.482,808.852 540.5,807.5C 538.359,804.154 535.526,800.821 532,797.5C 529.795,800.04 527.295,802.207 524.5,804C 516.505,804.495 513.171,800.661 514.5,792.5C 511.482,792.335 508.482,792.502 505.5,793C 502.144,799.675 496.811,802.675 489.5,802C 487.46,796.329 489.46,792.662 495.5,791C 504.435,790.254 506.935,785.754 503,777.5C 498.941,774.741 495.108,775.075 491.5,778.5C 488.019,790.066 484.852,801.733 482,813.5C 481.29,814.973 480.124,815.64 478.5,815.5C 481.384,800.963 485.051,786.63 489.5,772.5 Z"/></g>
<g><path style="opacity:1" fill="#ffe5de" d="M 671.5,782.5 C 672.5,782.5 673.5,782.5 674.5,782.5C 674.343,783.873 674.51,785.207 675,786.5C 678.647,783.938 682.147,783.938 685.5,786.5C 681.577,786.882 678.077,788.215 675,790.5C 672.012,794.808 669.845,799.475 668.5,804.5C 667.5,804.5 666.5,804.5 665.5,804.5C 665.357,802.738 665.691,801.071 666.5,799.5C 662.157,797.619 658.824,798.786 656.5,803C 650.824,806.963 646.491,805.797 643.5,799.5C 639.535,801.635 635.702,803.968 632,806.5C 629.921,813.066 627.255,819.4 624,825.5C 622.093,829.01 619.26,830.176 615.5,829C 613.006,825.353 612.84,821.519 615,817.5C 618.833,812.333 623.333,807.833 628.5,804C 625.572,804.456 622.572,804.456 619.5,804C 618.299,803.097 617.465,801.931 617,800.5C 612.155,806.079 607.822,805.746 604,799.5C 600.306,804.342 596.306,804.675 592,800.5C 590.632,794.731 592.466,790.231 597.5,787C 602.19,785.061 606.857,783.895 611.5,783.5C 610.507,787.491 609.507,791.491 608.5,795.5C 608.431,800.698 610.431,801.698 614.5,798.5C 616.642,793.715 619.642,789.549 623.5,786C 626.959,784.294 630.459,784.128 634,785.5C 635.153,783.503 636.653,783.17 638.5,784.5C 637.098,788.539 635.598,792.539 634,796.5C 633.219,797.944 633.386,799.277 634.5,800.5C 637.167,799.167 639.833,797.833 642.5,796.5C 644.472,790.171 648.472,785.838 654.5,783.5C 660.65,785.125 663.317,789.125 662.5,795.5C 664.722,795.822 666.556,795.155 668,793.5C 669.323,789.873 670.489,786.207 671.5,782.5 Z"/></g>
<g><path style="opacity:1" fill="#ffe5dd" d="M 703.5,783.5 C 704.995,783.415 705.995,784.081 706.5,785.5C 703.755,789.813 702.588,794.479 703,799.5C 707.078,800.821 709.911,799.321 711.5,795C 712.448,794.517 713.448,794.351 714.5,794.5C 713.254,801.254 709.254,804.421 702.5,804C 700.981,802.649 699.648,801.149 698.5,799.5C 696.008,803.266 692.674,804.266 688.5,802.5C 684.698,798.677 684.532,794.677 688,790.5C 691.503,785.82 696.003,784.154 701.5,785.5C 702.522,785.145 703.189,784.478 703.5,783.5 Z"/></g>
<g><path style="opacity:1" fill="#ff7d55" d="M 324.5,786.5 C 326.225,786.843 326.725,787.843 326,789.5C 324.428,791.563 322.595,792.229 320.5,791.5C 321.857,789.814 323.19,788.148 324.5,786.5 Z"/></g>
<g><path style="opacity:1" fill="#ff7b53" d="M 521.5,786.5 C 522.675,786.281 523.675,786.614 524.5,787.5C 518.52,794.24 517.52,793.906 521.5,786.5 Z"/></g>
<g><path style="opacity:1" fill="#ff7147" d="M 626.5,787.5 C 628.527,787.338 630.527,787.505 632.5,788C 632.43,794.274 629.43,798.774 623.5,801.5C 620.747,799.957 619.913,797.624 621,794.5C 622.371,791.734 624.204,789.401 626.5,787.5 Z"/></g>
<g><path style="opacity:1" fill="#ff7348" d="M 423.5,788.5 C 425.604,788.201 427.604,788.534 429.5,789.5C 427.663,794.205 424.663,797.872 420.5,800.5C 419.914,800.291 419.414,799.957 419,799.5C 418.333,797.5 418.333,795.5 419,793.5C 420.707,791.963 422.207,790.296 423.5,788.5 Z"/></g>
<g><path style="opacity:1" fill="#ff7248" d="M 560.5,788.5 C 562.604,788.201 564.604,788.534 566.5,789.5C 564.663,794.205 561.663,797.872 557.5,800.5C 555.554,798.956 555.054,796.956 556,794.5C 557.332,792.34 558.832,790.34 560.5,788.5 Z"/></g>
<g><path style="opacity:1" fill="#ff6f44" d="M 600.5,788.5 C 602.527,788.338 604.527,788.505 606.5,789C 604.905,792.858 602.572,796.191 599.5,799C 598.207,799.49 596.873,799.657 595.5,799.5C 594.775,794.623 596.442,790.956 600.5,788.5 Z"/></g>
<g><path style="opacity:1" fill="#ff7045" d="M 651.5,787.5 C 652.052,791.272 653.719,794.605 656.5,797.5C 654.375,801.741 651.542,802.408 648,799.5C 646.745,794.738 647.912,790.738 651.5,787.5 Z"/></g>
<g><path style="opacity:1" fill="#ff7e56" d="M 655.5,788.5 C 658.838,788.849 659.838,790.516 658.5,793.5C 656.244,792.579 655.244,790.912 655.5,788.5 Z"/></g>
<g><path style="opacity:1" fill="#ff7248" d="M 694.5,788.5 C 696.604,788.201 698.604,788.534 700.5,789.5C 698.663,794.205 695.663,797.872 691.5,800.5C 689.554,798.956 689.054,796.956 690,794.5C 691.332,792.34 692.832,790.34 694.5,788.5 Z"/></g>
<g><path style="opacity:1" fill="#ff7950" d="M 498.5,793.5 C 499.239,793.369 499.906,793.536 500.5,794C 499.167,795.333 497.833,796.667 496.5,798C 495.056,798.781 493.723,798.614 492.5,797.5C 494.219,795.648 496.219,794.314 498.5,793.5 Z"/></g>
<g><path style="opacity:1" fill="#ff7348" d="M 296.5,803.5 C 297.496,803.414 298.329,803.748 299,804.5C 299.667,807.167 299.667,809.833 299,812.5C 296.692,816.662 293.692,817.328 290,814.5C 289.333,813.167 289.333,811.833 290,810.5C 291.694,807.642 293.861,805.309 296.5,803.5 Z"/></g>
<g><path style="opacity:1" fill="#ffe5de" d="M 462.5,802.5 C 466.343,803.931 466.509,805.931 463,808.5C 463.423,806.613 463.256,804.613 462.5,802.5 Z"/></g>
<g><path style="opacity:1" fill="#ff7147" d="M 441.5,805.5 C 442.629,807.628 442.796,809.961 442,812.5C 440.989,813.337 439.822,813.67 438.5,813.5C 438.394,810.385 439.394,807.719 441.5,805.5 Z"/></g>
<g><path style="opacity:1" fill="#ffe0d7" d="M 715.5,806.5 C 719.31,807.754 719.31,808.754 715.5,809.5C 715.5,808.5 715.5,807.5 715.5,806.5 Z"/></g>
<g><path style="opacity:1" fill="#ff6f44" d="M 625.5,810.5 C 625.719,816.411 623.386,821.411 618.5,825.5C 617.359,823.579 617.192,821.579 618,819.5C 620.335,816.335 622.835,813.335 625.5,810.5 Z"/></g>
</svg>
